<svg width="36" height="35" viewBox="0 0 36 35" fill="none" xmlns="http://www.w3.org/2000/svg">
<rect x="0.5" width="35" height="35" rx="5" fill="white" fill-opacity="0.1"/>
<rect x="1" y="0.5" width="34" height="34" rx="4.5" stroke="white" stroke-opacity="0.2"/>
<g clip-path="url(#clip0_128_40)">
<path d="M21.1772 10.2084C22.1946 10.4069 23.1296 10.9045 23.8626 11.6375C24.5956 12.3705 25.0932 13.3055 25.2917 14.3229M21.1772 6.04169C23.291 6.27652 25.2621 7.22312 26.767 8.72607C28.2718 10.229 29.2209 12.199 29.4584 14.3125M28.4167 22.625V25.75C28.4179 26.0401 28.3585 26.3273 28.2423 26.5931C28.126 26.8589 27.9556 27.0975 27.7418 27.2936C27.528 27.4898 27.2757 27.6391 27.0009 27.732C26.726 27.8249 26.4348 27.8595 26.1459 27.8334C22.9405 27.4851 19.8615 26.3898 17.1563 24.6354C14.6395 23.0361 12.5056 20.9023 10.9063 18.3854C9.14588 15.6679 8.05033 12.574 7.70841 9.35419C7.68238 9.06613 7.71661 8.77581 7.80893 8.50171C7.90125 8.22761 8.04963 7.97574 8.24462 7.76213C8.43962 7.54851 8.67695 7.37784 8.94152 7.26098C9.20609 7.14412 9.49209 7.08363 9.78132 7.08335H12.9063C13.4119 7.07838 13.9019 7.25739 14.2852 7.58703C14.6685 7.91667 14.9189 8.37444 14.9897 8.87502C15.1216 9.87509 15.3662 10.857 15.7188 11.8021C15.859 12.1749 15.8893 12.5801 15.8062 12.9697C15.7231 13.3592 15.5301 13.7168 15.2501 14L13.9272 15.3229C15.41 17.9308 17.5693 20.0901 20.1772 21.5729L21.5001 20.25C21.7833 19.97 22.1409 19.7769 22.5304 19.6939C22.92 19.6108 23.3252 19.6411 23.698 19.7813C24.6431 20.1339 25.625 20.3785 26.6251 20.5104C27.1311 20.5818 27.5932 20.8367 27.9235 21.2266C28.2539 21.6165 28.4294 22.1142 28.4167 22.625Z" stroke="url(#paint0_linear_128_40)" stroke-width="2" stroke-linecap="round" stroke-linejoin="round"/>
</g>
<defs>
<linearGradient id="paint0_linear_128_40" x1="18.5792" y1="6.04169" x2="18.5792" y2="27.8418" gradientUnits="userSpaceOnUse">
<stop stop-color="white"/>
<stop offset="1" stop-color="white" stop-opacity="0.5"/>
</linearGradient>
<clipPath id="clip0_128_40">
<rect width="25" height="25" fill="white" transform="translate(5.5 5)"/>
</clipPath>
</defs>
</svg>
