<svg width="208" height="55" viewBox="0 0 208 55" fill="none" xmlns="http://www.w3.org/2000/svg">
<path d="M5.24037 14.5361L6.25189 15.2367L16.338 8.51632L17.4579 9.29201L14.7198 21.1019L15.7385 21.8076L14.9729 22.913L11.96 20.8262L12.7257 19.7207L13.4915 20.2512L14.1865 17.2258L10.032 14.3482L7.44405 16.0625L8.26772 16.633L7.50204 17.7384L4.47469 15.6416L5.24037 14.5361ZM14.5259 15.825L15.7311 10.5657L11.2384 13.548L14.5259 15.825Z" fill="white"/>
<path d="M34.326 32.0312L35.3686 32.4767L39.2713 23.344L38.2287 22.8985L38.7537 21.67L41.2753 22.7476L42.4639 33.7214L45.7208 26.1001L44.7024 25.6649L45.2274 24.4364L48.5653 25.8628L48.0403 27.0913L47.0058 26.6492L43.1031 35.7819L44.1376 36.224L43.6092 37.4605L41.3462 36.4935L40.0844 25.02L36.6617 33.0293L37.672 33.461L37.1435 34.6976L33.7976 33.2677L34.326 32.0312Z" fill="white"/>
<path d="M51.9619 39.068L53.0481 39.393L55.8943 29.8779L54.808 29.5529L55.1909 28.273L64.4028 31.0285L63.6926 33.4031L62.4042 33.0177L62.7317 31.923L57.2415 30.2809L56.0829 34.1543L59.1817 35.0811L59.4965 34.0286L60.7848 34.4139L59.7673 37.8158L58.479 37.4304L58.7988 36.361L55.7001 35.4342L54.3954 39.7959L60.0876 41.4986L60.4075 40.4292L61.6874 40.812L60.9822 43.1698L51.5766 40.3564L51.9619 39.068Z" fill="white"/>
<path d="M72.112 34.2789L70.9949 34.0856L71.2226 32.7693L74.808 33.3896L74.5802 34.706L73.5583 34.5292L73.1464 44.1268L76.7402 35.2135L78.1692 35.4608L78.5505 45.0619L81.396 35.8853L80.3481 35.704L80.5758 34.3876L84.1526 35.0065L83.9248 36.3229L82.8163 36.131L79.4215 46.9876L77.2737 46.616L76.9469 38.2463L73.8096 46.0166L71.6618 45.645L72.112 34.2789Z" fill="white"/>
<path d="M94.2948 48.7681C93.7549 48.6621 93.2314 48.4718 92.7242 48.1974C92.2229 47.9233 91.7835 47.591 91.406 47.2005L91.3644 47.9552L90.0129 47.8807L90.2094 44.3178L91.4116 44.384L91.3932 44.7175C91.7017 45.5091 92.1224 46.128 92.6553 46.574C93.194 47.0203 93.8237 47.3074 94.5443 47.4351C94.7361 47.4692 94.9461 47.4925 95.1743 47.5051C95.9758 47.5492 96.6438 47.4071 97.1783 47.0786C97.7187 46.7504 98.048 46.258 98.1664 45.6014C98.182 45.5319 98.1934 45.4298 98.2009 45.2953C98.227 44.8214 98.1017 44.433 97.825 44.1302C97.5544 43.8219 97.1641 43.5568 96.6541 43.3351L93.663 42.0259C92.6952 41.5911 91.9761 41.1172 91.5056 40.6042C91.035 40.0912 90.8209 39.4515 90.8632 38.6851C90.8712 38.5388 90.8881 38.393 90.9137 38.2477C91.0239 37.6318 91.2696 37.1142 91.6506 36.6951C92.032 36.2702 92.5128 35.9592 93.0928 35.7623C93.6729 35.5655 94.3081 35.486 94.9985 35.5241C95.291 35.5402 95.5447 35.5689 95.7596 35.6101C96.2767 35.7031 96.7521 35.8614 97.1858 36.0848C97.6256 36.3027 98.0098 36.5733 98.3382 36.8965L98.3909 35.94L99.7424 36.0145L99.5445 39.6037L98.3773 39.5394C98.1046 38.738 97.7358 38.1367 97.2708 37.7355C96.8121 37.3288 96.2282 37.0619 95.5193 36.9348C95.2752 36.892 95.0595 36.8654 94.8723 36.8551C94.1761 36.8167 93.5973 36.9374 93.1359 37.2171C92.6748 37.491 92.3938 37.9039 92.293 38.4558C92.2742 38.5839 92.2632 38.6771 92.2599 38.7357C92.2358 39.1744 92.3742 39.5371 92.6753 39.8236C92.9764 40.1102 93.4679 40.4013 94.15 40.6971L97.2098 42.0365C98.8823 42.7801 99.6783 43.8832 99.5977 45.3458C99.5922 45.4453 99.5713 45.6114 99.535 45.8441C99.4166 46.5007 99.1479 47.0639 98.7288 47.5338C98.3159 47.9981 97.7922 48.3448 97.1575 48.5738C96.5228 48.8029 95.8252 48.8965 95.0647 48.8546C94.8423 48.8423 94.5857 48.8135 94.2948 48.7681Z" fill="white"/>
<path d="M107.048 47.4509L108.18 47.3919L107.664 37.4737L106.532 37.5327L106.462 36.1985L110.096 36.0094L110.165 37.3435L109.068 37.4006L109.585 47.3188L115.518 47.0099L115.46 45.8952L116.794 45.8258L116.922 48.2834L107.118 48.7938L107.048 47.4509Z" fill="white"/>
<path d="M124.985 46.0964L126.104 45.9134L124.501 36.112L123.382 36.2951L123.166 34.9767L132.655 33.4244L133.055 35.8704L131.728 36.0875L131.544 34.9599L125.889 35.885L126.541 39.8749L129.733 39.3528L129.556 38.2686L130.883 38.0515L131.456 41.5557L130.129 41.7728L129.949 40.6712L126.757 41.1934L127.492 45.6864L133.355 44.7272L133.175 43.6256L134.494 43.4099L134.891 45.8386L125.202 47.4235L124.985 46.0964Z" fill="white"/>
<path d="M146.383 41.7457L147.466 41.4398L144.783 31.8775L141.273 32.8692L141.578 33.9518L140.276 34.3198L139.607 31.9516L150.577 28.8523L151.258 31.2628L149.972 31.626L149.654 30.5011L146.136 31.4952L148.836 41.0527L149.885 40.7564L150.251 42.0505L146.749 43.0398L146.383 41.7457Z" fill="white"/>
<path d="M164.384 35.7346L165.424 35.3052L161.65 26.1187L158.278 27.5108L158.708 28.5507L157.457 29.0673L156.517 26.7927L167.054 22.4418L168.01 24.757L166.775 25.2669L166.329 24.1865L162.949 25.582L166.74 34.7618L167.747 34.3458L168.261 35.5887L164.897 36.9775L164.384 35.7346Z" fill="white"/>
<path d="M178.188 29.5363L179.181 28.9879L174.377 20.2951L173.385 20.8434L172.739 19.6741L181.155 15.0238L182.353 17.1932L181.176 17.8436L180.624 16.8435L175.608 19.615L177.564 23.1537L180.394 21.5894L179.863 20.6278L181.04 19.9774L182.757 23.0853L181.58 23.7357L181.041 22.7587L178.21 24.323L180.412 28.3078L185.612 25.4343L185.072 24.4573L186.241 23.8112L187.432 25.9652L178.839 30.7133L178.188 29.5363Z" fill="white"/>
<path d="M193.726 20.4712L194.652 19.8171L188.922 11.7049L187.996 12.359L187.225 11.2678L191.654 8.13927C192.975 7.20629 194.149 6.73979 195.175 6.73978C196.2 6.73977 197.04 7.20161 197.692 8.1253C198.334 9.03464 198.498 9.96255 198.184 10.909C197.87 11.8555 197.083 12.7879 195.823 13.7063L201.091 15.2688L202.154 14.5184L202.929 15.6168L201.242 16.8083L194.409 14.7052L193.325 15.4708L195.815 18.9957L196.698 18.372L197.473 19.4704L194.501 21.5696L193.726 20.4712ZM194.854 12.7448C195.562 12.2445 196.085 11.7817 196.423 11.3564C196.761 10.9311 196.936 10.524 196.949 10.1352C196.961 9.74631 196.823 9.34847 196.536 8.94166C196.245 8.53007 195.915 8.26505 195.544 8.14661C195.174 8.02817 194.733 8.05955 194.223 8.24075C193.709 8.41717 193.098 8.75553 192.389 9.25582L190.085 10.8835L192.549 14.3724L194.854 12.7448Z" fill="white"/>
</svg>
