<svg width="206" height="54" viewBox="0 0 206 54" fill="none" xmlns="http://www.w3.org/2000/svg">
<path d="M14.9874 45.6692C14.4942 45.9131 13.9629 46.0802 13.3933 46.1706C12.8287 46.2576 12.2778 46.2607 11.7406 46.1801L12.1663 46.8047L11.0478 47.5669L9.03831 44.6181L10.0333 43.9401L10.2214 44.2161C10.9475 44.6572 11.6576 44.893 12.3519 44.9233C13.051 44.9503 13.7255 44.7955 14.3754 44.459C14.5484 44.3695 14.7293 44.2604 14.9181 44.1317C15.5815 43.6796 16.0256 43.1607 16.2504 42.575C16.48 41.986 16.4423 41.3948 16.1373 40.8015C16.1073 40.7368 16.0544 40.6487 15.9785 40.5374C15.7113 40.1452 15.3758 39.9129 14.972 39.8407C14.5697 39.7602 14.0987 39.787 13.5589 39.9209L10.3879 40.6991C9.35518 40.942 8.49607 41.0028 7.81063 40.8813C7.1252 40.7599 6.56635 40.3821 6.1341 39.7478C6.0516 39.6267 5.97638 39.5007 5.90841 39.3698C5.62159 38.8136 5.50213 38.2534 5.55001 37.6889C5.5946 37.1197 5.78738 36.5806 6.12837 36.0717C6.46935 35.5628 6.92552 35.1136 7.49687 34.7243C7.73897 34.5593 7.95784 34.4279 8.15349 34.33C8.62072 34.0896 9.09442 33.9263 9.5746 33.8402C10.0563 33.7459 10.5258 33.7273 10.9831 33.7844L10.4436 32.9927L11.5621 32.2305L13.5864 35.201L12.6204 35.8593C11.9168 35.3887 11.2585 35.1354 10.6454 35.0993C10.0339 35.0552 9.40803 35.1981 8.76782 35.528C8.54796 35.6424 8.36055 35.7524 8.20561 35.8579C7.62942 36.2506 7.24312 36.6982 7.04671 37.2008C6.847 37.6985 6.87483 38.1971 7.1302 38.6967C7.19311 38.8098 7.24106 38.8906 7.27405 38.939C7.52153 39.3022 7.85189 39.506 8.26514 39.5506C8.67839 39.5951 9.2457 39.5276 9.96708 39.348L13.211 38.5519C14.9911 38.1259 16.2936 38.5181 17.1185 39.7286C17.1746 39.8109 17.259 39.9555 17.3716 40.1624C17.6767 40.7557 17.8056 41.3663 17.7583 41.9941C17.7126 42.6138 17.5074 43.2074 17.1426 43.7751C16.7779 44.3427 16.2808 44.841 15.6513 45.27C15.4673 45.3954 15.246 45.5284 14.9874 45.6692Z" fill="white"/>
<path d="M30.3244 36.4159C29.5878 36.8028 28.8445 36.9815 28.0943 36.9519C27.3441 36.9224 26.6543 36.699 26.0248 36.2817C25.3953 35.8645 24.8857 35.285 24.4961 34.5432L21.1489 28.1705L20.1451 28.6977L19.5239 27.515L22.7453 25.823L23.3665 27.0057L22.3939 27.5166L25.7002 33.8114C25.9917 34.3665 26.3489 34.7944 26.7716 35.0952C27.1943 35.3961 27.6549 35.5546 28.1532 35.5708C28.6566 35.5844 29.1652 35.4563 29.6787 35.1865C30.1974 34.9141 30.5915 34.5681 30.861 34.1486C31.1356 33.7264 31.269 33.2559 31.2613 32.7371C31.2535 32.2183 31.1039 31.6814 30.8123 31.1263L27.506 24.8315L26.51 25.3546L25.8888 24.1719L29.1024 22.484L29.7236 23.6667L28.7432 24.1816L32.0904 30.5543C32.48 31.2961 32.668 32.0446 32.6542 32.7997C32.6405 33.5548 32.4329 34.2495 32.0315 34.8839C31.6301 35.5184 31.0611 36.029 30.3244 36.4159Z" fill="white"/>
<path d="M41.8115 29.0781L42.8702 28.6724L39.3167 19.3982L38.258 19.8039L37.78 18.5564L42.3022 16.8237C43.7083 16.2849 44.878 16.1442 45.8112 16.4015C46.7422 16.6534 47.4017 17.2855 47.7895 18.2977C48.0055 18.8613 48.0706 19.3916 47.985 19.8888C47.9049 20.3838 47.6986 20.8362 47.3662 21.2459C48.046 21.2678 48.6498 21.46 49.1777 21.8225C49.7111 22.1828 50.1067 22.6995 50.3646 23.3725C50.786 24.4722 50.7101 25.4614 50.1368 26.3399C49.5691 27.2163 48.5329 27.9427 47.0282 28.5193L42.2926 30.3338L41.8115 29.0781ZM46.506 27.2793C47.3158 26.969 47.9376 26.6429 48.3713 26.301C48.805 25.9592 49.0754 25.592 49.1823 25.1997C49.2926 24.7998 49.2544 24.3563 49.0679 23.8693C48.8813 23.3824 48.6133 23.027 48.264 22.8032C47.9202 22.5773 47.4727 22.482 46.9216 22.5175C46.3684 22.5475 45.6869 22.7177 44.8771 23.0279L42.5544 23.9179L44.1834 28.1692L46.506 27.2793ZM44.1693 21.8685C44.9134 21.5834 45.4819 21.2903 45.8748 20.9891C46.271 20.6804 46.5169 20.3478 46.6124 19.9912C46.708 19.6345 46.6708 19.2346 46.501 18.7914C46.3333 18.3537 46.0958 18.0369 45.7885 17.8409C45.4812 17.6449 45.0781 17.5672 44.5791 17.6078C44.0856 17.6463 43.4668 17.8081 42.7227 18.0932L40.6299 18.8951L42.0764 22.6704L44.1693 21.8685Z" fill="white"/>
<path d="M63.383 23.5529C62.8365 23.6164 62.2799 23.5947 61.7132 23.4878C61.1523 23.3795 60.6325 23.1969 60.1539 22.94L60.3443 23.6715L59.0344 24.0123L58.1358 20.5589L59.3011 20.2557L59.3852 20.5789C59.9202 21.2389 60.5095 21.7001 61.1529 21.9626C61.802 22.2236 62.4893 22.3051 63.2145 22.2072C63.4076 22.1812 63.6147 22.1394 63.8358 22.0819C64.6127 21.8797 65.2056 21.5408 65.6146 21.0651C66.0293 20.5878 66.193 20.0185 66.1056 19.3571C66.0993 19.2861 66.0791 19.1854 66.0452 19.055C65.9257 18.5956 65.688 18.2639 65.3322 18.0599C64.9806 17.8486 64.5281 17.7151 63.9747 17.6593L60.7269 17.3237C59.6727 17.2045 58.8434 16.9722 58.2389 16.627C57.6345 16.2817 57.2356 15.7377 57.0423 14.9948C57.0054 14.8531 56.977 14.7091 56.9572 14.5629C56.8745 13.9426 56.9508 13.3749 57.186 12.8596C57.4198 12.3386 57.7829 11.896 58.2754 11.5317C58.7679 11.1674 59.3488 10.8983 60.0179 10.7242C60.3014 10.6504 60.5518 10.6004 60.769 10.5741C61.2899 10.5052 61.7909 10.5111 62.272 10.5917C62.7573 10.6653 63.2056 10.8059 63.6169 11.0138L63.3757 10.0866L64.6856 9.74579L65.5908 13.2247L64.4595 13.519C63.9556 12.8388 63.4211 12.3785 62.856 12.1381C62.2951 11.8905 61.6577 11.8141 60.9437 11.9091C60.6982 11.9427 60.4847 11.9831 60.3032 12.0303C59.6285 12.2059 59.1139 12.4972 58.7597 12.9042C58.404 13.3055 58.2622 13.7844 58.3343 14.3408C58.3554 14.4685 58.3733 14.5607 58.3881 14.6174C58.4988 15.0427 58.7411 15.3459 59.1152 15.5271C59.4893 15.7083 60.0462 15.8358 60.7859 15.9098L64.1083 16.2532C65.9279 16.4518 67.0221 17.2599 67.391 18.6776C67.4161 18.774 67.4468 18.9385 67.4831 19.1712C67.5704 19.8327 67.4861 20.451 67.2301 21.0262C66.9783 21.5942 66.5851 22.084 66.0504 22.4956C65.5157 22.9071 64.8798 23.2088 64.1426 23.4006C63.9271 23.4567 63.6739 23.5074 63.383 23.5529Z" fill="white"/>
<path d="M81.2846 19.9491C80.1479 20.113 79.1061 19.9701 78.1592 19.5206C77.2123 19.071 76.4325 18.3842 75.8198 17.4603C75.2071 16.5363 74.8133 15.4683 74.6386 14.2562C74.4613 13.0267 74.5274 11.8835 74.8368 10.8266C75.152 9.76884 75.6944 8.89144 76.4642 8.19439C77.2339 7.49734 78.19 7.06646 79.3325 6.90175C80.2604 6.76798 81.1496 6.81738 82.0001 7.04997C82.8506 7.28255 83.6085 7.69424 84.2738 8.28503L84.4045 8.39052L84.723 10.6001L83.4617 10.7819L83.2296 9.17261C82.7286 8.77716 82.1677 8.49987 81.5468 8.34074C80.926 8.18161 80.2531 8.1543 79.5282 8.25881C78.6351 8.38757 77.9021 8.72411 77.3294 9.26844C76.7559 9.80696 76.3602 10.4915 76.1425 11.3221C75.9306 12.1518 75.8962 13.0626 76.0392 14.0543C76.1813 15.0402 76.4766 15.8974 76.925 16.6261C77.3734 17.3547 77.9545 17.8955 78.6684 18.2484C79.3824 18.6013 80.1888 18.7129 81.0877 18.5833C81.9228 18.4629 82.6492 18.1836 83.2668 17.7453C83.8844 17.307 84.3584 16.7354 84.689 16.0306L85.7491 16.9168C85.2912 17.7642 84.6734 18.4482 83.896 18.9688C83.1236 19.4827 82.2531 19.8095 81.2846 19.9491Z" fill="white"/>
<path d="M93.2305 17.0267L94.3639 16.9942L94.0795 7.06666L92.9462 7.09913L92.9079 5.76374L98.3285 5.60847C99.9451 5.56216 101.181 5.82279 102.035 6.39036C102.89 6.95792 103.333 7.8069 103.365 8.93729C103.397 10.0501 103.02 10.9138 102.235 11.5283C101.45 12.1429 100.278 12.4842 98.7209 12.5522L102.244 16.7685L103.545 16.7313L103.583 18.0754L101.519 18.1346L96.9901 12.6018L95.6635 12.6398L95.7871 16.9535L96.8677 16.9225L96.9062 18.2667L93.269 18.3709L93.2305 17.0267ZM98.4452 11.2148C99.312 11.19 100.004 11.094 100.521 10.9268C101.038 10.7596 101.409 10.5174 101.634 10.2003C101.86 9.88314 101.965 9.47565 101.951 8.97781C101.936 8.47411 101.808 8.07041 101.565 7.7667C101.321 7.46299 100.937 7.24539 100.412 7.1139C99.8859 6.97655 99.1897 6.92029 98.3229 6.94511L95.5027 7.0259L95.625 11.2956L98.4452 11.2148Z" fill="white"/>
<path d="M111.233 17.0256L112.365 17.0977L112.996 7.18619L111.865 7.11409L111.95 5.78085L115.581 6.01225L115.496 7.34548L114.4 7.27562L113.768 17.1872L114.865 17.257L114.779 18.599L111.148 18.3676L111.233 17.0256Z" fill="white"/>
<path d="M122.209 17.9172L123.329 18.0933L124.872 8.28208L123.752 8.10603L123.959 6.78629L128.743 7.53827C130.231 7.7721 131.315 8.23314 131.995 8.9214C132.677 9.60388 132.934 10.4805 132.765 11.5514C132.672 12.1476 132.464 12.6398 132.142 13.0281C131.825 13.4173 131.421 13.7067 130.929 13.8962C131.507 14.254 131.935 14.7216 132.212 15.299C132.495 15.8772 132.58 16.5223 132.468 17.2343C132.285 18.3978 131.726 19.2174 130.792 19.6933C129.863 20.17 128.602 20.2833 127.01 20.0331L122.001 19.2456L122.209 17.9172ZM127.176 18.6978C128.032 18.8325 128.734 18.8597 129.28 18.7795C129.827 18.6994 130.244 18.5158 130.532 18.229C130.827 17.9373 131.015 17.5338 131.096 17.0187C131.177 16.5035 131.122 16.0619 130.931 15.6937C130.745 15.3265 130.405 15.0209 129.909 14.7769C129.415 14.5272 128.739 14.335 127.883 14.2003L125.426 13.8141L124.719 18.3116L127.176 18.6978ZM127.847 12.8424C128.634 12.9661 129.273 12.9954 129.764 12.9302C130.261 12.8601 130.64 12.6942 130.901 12.4327C131.161 12.1712 131.328 11.806 131.402 11.3371C131.475 10.874 131.427 10.481 131.258 10.1579C131.09 9.83481 130.779 9.56651 130.326 9.35298C129.879 9.14036 129.262 8.97219 128.475 8.84845L126.261 8.50044L125.633 12.4944L127.847 12.8424Z" fill="white"/>
<path d="M139.93 21.1456L141.023 21.4485L143.676 11.8779L142.583 11.575L142.94 10.2876L152.206 12.8565L151.544 15.2449L150.248 14.8856L150.553 13.7846L145.031 12.2536L143.951 16.1496L147.068 17.0137L147.361 15.955L148.657 16.3143L147.708 19.736L146.413 19.3767L146.711 18.3011L143.594 17.437L142.378 21.8242L148.103 23.4116L148.401 22.3359L149.689 22.6929L149.031 25.0643L139.571 22.4414L139.93 21.1456Z" fill="white"/>
<path d="M172.629 33.1024L173.631 33.6128L178.153 24.7701L174.902 23.1153L174.392 24.1178L173.186 23.5037L174.302 21.3106L184.461 26.4825L183.325 28.7148L182.134 28.1087L182.664 27.0669L179.406 25.4081L174.9 34.2588L175.871 34.7532L175.261 35.9516L172.019 34.3007L172.629 33.1024Z" fill="white"/>
<path d="M189.668 44.8765C188.734 44.2489 188.077 43.4574 187.695 42.502C187.314 41.5466 187.21 40.524 187.385 39.4342C187.568 38.3428 188.003 37.2865 188.689 36.2653C189.375 35.2441 190.188 34.4452 191.126 33.8687C192.073 33.2905 193.06 32.9977 194.089 32.9902C195.118 32.9828 196.099 33.2928 197.032 33.9205C197.961 34.5448 198.616 35.3347 198.998 36.29C199.379 37.2454 199.48 38.2664 199.301 39.3529C199.121 40.4394 198.686 41.4957 197.997 42.5218C197.31 43.543 196.496 44.3443 195.555 44.9257C194.616 45.5023 193.633 45.7943 192.604 45.8018C191.575 45.8092 190.597 45.5008 189.668 44.8765ZM189.863 37.0547C189.308 37.8814 188.945 38.7145 188.776 39.5541C188.616 40.392 188.672 41.1747 188.945 41.9022C189.219 42.6297 189.718 43.2369 190.443 43.724C191.162 44.2078 191.911 44.4389 192.687 44.4175C193.464 44.3961 194.21 44.1487 194.923 43.6753C195.642 43.2051 196.277 42.5591 196.829 41.7373C197.385 40.9106 197.745 40.0758 197.909 39.233C198.078 38.3935 198.026 37.61 197.752 36.8825C197.479 36.1551 196.982 35.5494 196.263 35.0657C195.538 34.5786 194.787 34.3458 194.01 34.3672C193.234 34.3886 192.486 34.6344 191.767 35.1046C191.054 35.578 190.419 36.2281 189.863 37.0547Z" fill="white"/>
</svg>
