<svg width="26" height="25" viewBox="0 0 26 25" fill="none" xmlns="http://www.w3.org/2000/svg">
<g clip-path="url(#clip0_128_41)">
<path d="M16.1772 5.20835C17.1946 5.40686 18.1296 5.90445 18.8626 6.63745C19.5956 7.37045 20.0932 8.3055 20.2917 9.32294M16.1772 1.04169C18.291 1.27652 20.2621 2.22312 21.767 3.72607C23.2718 5.22902 24.2209 7.19899 24.4584 9.31252M23.4167 17.625V20.75C23.4179 21.0401 23.3585 21.3273 23.2423 21.5931C23.126 21.8589 22.9556 22.0975 22.7418 22.2936C22.528 22.4898 22.2757 22.6391 22.0009 22.732C21.726 22.8249 21.4348 22.8595 21.1459 22.8334C17.9405 22.4851 14.8615 21.3898 12.1563 19.6354C9.63948 18.0361 7.50563 15.9023 5.90632 13.3854C4.14588 10.6679 3.05033 7.57397 2.70841 4.35419C2.68238 4.06613 2.71661 3.77581 2.80893 3.50171C2.90125 3.22761 3.04963 2.97574 3.24462 2.76213C3.43962 2.54851 3.67695 2.37784 3.94152 2.26098C4.20609 2.14412 4.49209 2.08363 4.78132 2.08335H7.90632C8.41185 2.07838 8.90194 2.25739 9.28524 2.58703C9.66854 2.91667 9.9189 3.37444 9.98966 3.87502C10.1216 4.87509 10.3662 5.85703 10.7188 6.8021C10.859 7.17494 10.8893 7.58014 10.8062 7.96969C10.7231 8.35923 10.5301 8.7168 10.2501 9.00002L8.92716 10.3229C10.41 12.9308 12.5693 15.0901 15.1772 16.5729L16.5001 15.25C16.7833 14.97 17.1409 14.7769 17.5304 14.6939C17.92 14.6108 18.3252 14.6411 18.698 14.7813C19.6431 15.1339 20.625 15.3785 21.6251 15.5104C22.1311 15.5818 22.5932 15.8367 22.9235 16.2266C23.2539 16.6165 23.4294 17.1142 23.4167 17.625Z" stroke="url(#paint0_linear_128_41)" stroke-width="2" stroke-linecap="round" stroke-linejoin="round"/>
</g>
<defs>
<linearGradient id="paint0_linear_128_41" x1="13.5792" y1="1.04169" x2="13.5792" y2="22.8418" gradientUnits="userSpaceOnUse">
<stop stop-color="white"/>
<stop offset="1" stop-color="white" stop-opacity="0.5"/>
</linearGradient>
<clipPath id="clip0_128_41">
<rect width="25" height="25" fill="white" transform="translate(0.5)"/>
</clipPath>
</defs>
</svg>
